<?xml version="1.0" encoding="UTF-8" standalone="no"?>
<!DOCTYPE svg PUBLIC "-//W3C//DTD SVG 1.1//EN"
 "http://www.w3.org/Graphics/SVG/1.1/DTD/svg11.dtd">
<!-- Generated by graphviz version 13.1.0 (20250701.0955)
 -->
<!-- Title: shtc3_basic_init Pages: 1 -->
<svg width="261pt" height="354pt"
 viewBox="0.00 0.00 261.00 354.00" xmlns="http://www.w3.org/2000/svg" xmlns:xlink="http://www.w3.org/1999/xlink">
<g id="graph0" class="graph" transform="scale(1 1) rotate(0) translate(4 350)">
<title>shtc3_basic_init</title>
<!-- Node1 -->
<g id="Node000001" class="node">
<title>Node1</title>
<g id="a_Node000001"><a xlink:title="basic example init">
<polygon fill="#999999" stroke="#666666" points="86.5,-192 0,-192 0,-172 86.5,-172 86.5,-192"/>
<text xml:space="preserve" text-anchor="middle" x="43.25" y="-178.5" font-family="Helvetica,sans-Serif" font-size="10.00">shtc3_basic_init</text>
</a>
</g>
</g>
<!-- Node2 -->
<g id="Node000002" class="node">
<title>Node2</title>
<g id="a_Node000002"><a xlink:href="group__shtc3__base__driver.html#ga2bed4e3cf419663dae75d55e3bc7a70f" target="_top" xlink:title="initialize the chip">
<polygon fill="white" stroke="#666666" points="216.5,-346 158.5,-346 158.5,-326 216.5,-326 216.5,-346"/>
<text xml:space="preserve" text-anchor="middle" x="187.5" y="-332.5" font-family="Helvetica,sans-Serif" font-size="10.00">shtc3_init</text>
</a>
</g>
</g>
<!-- Node1&#45;&gt;Node2 -->
<g id="edge1_Node000001_Node000002" class="edge">
<title>Node1&#45;&gt;Node2</title>
<g id="a_edge1_Node000001_Node000002"><a xlink:title=" ">
<path fill="none" stroke="#63b8ff" d="M47.25,-192.22C55.17,-217.38 79.08,-282.81 122.5,-317 129.67,-322.65 138.49,-326.62 147.26,-329.41"/>
<polygon fill="#63b8ff" stroke="#63b8ff" points="146.18,-332.75 156.75,-331.96 148,-325.98 146.18,-332.75"/>
</a>
</g>
</g>
<!-- Node3 -->
<g id="Node000003" class="node">
<title>Node3</title>
<g id="a_Node000003"><a xlink:href="group__shtc3__interface__driver.html#gae4cf9c5c0916f6f9c52fc7b8ff56050a" target="_top" xlink:title="interface print format data">
<polygon fill="white" stroke="#666666" points="244.62,-308 130.38,-308 130.38,-276 244.62,-276 244.62,-308"/>
<text xml:space="preserve" text-anchor="start" x="138.38" y="-294.5" font-family="Helvetica,sans-Serif" font-size="10.00">shtc3_interface_debug</text>
<text xml:space="preserve" text-anchor="middle" x="187.5" y="-282.5" font-family="Helvetica,sans-Serif" font-size="10.00">_print</text>
</a>
</g>
</g>
<!-- Node1&#45;&gt;Node3 -->
<g id="edge2_Node000001_Node000003" class="edge">
<title>Node1&#45;&gt;Node3</title>
<g id="a_edge2_Node000001_Node000003"><a xlink:title=" ">
<path fill="none" stroke="#63b8ff" d="M51.29,-192.3C63.76,-209.85 91.37,-245.72 122.5,-267 124.09,-268.09 125.74,-269.14 127.42,-270.15"/>
<polygon fill="#63b8ff" stroke="#63b8ff" points="125.64,-273.16 136.1,-274.83 128.96,-267 125.64,-273.16"/>
</a>
</g>
</g>
<!-- Node4 -->
<g id="Node000004" class="node">
<title>Node4</title>
<g id="a_Node000004"><a xlink:href="group__shtc3__interface__driver.html#ga9e6c852fa33044256f4aa0603f5966cf" target="_top" xlink:title="interface delay ms">
<polygon fill="white" stroke="#666666" points="252.5,-258 122.5,-258 122.5,-238 252.5,-238 252.5,-258"/>
<text xml:space="preserve" text-anchor="middle" x="187.5" y="-244.5" font-family="Helvetica,sans-Serif" font-size="10.00">shtc3_interface_delay_ms</text>
</a>
</g>
</g>
<!-- Node1&#45;&gt;Node4 -->
<g id="edge3_Node000001_Node000004" class="edge">
<title>Node1&#45;&gt;Node4</title>
<g id="a_edge3_Node000001_Node000004"><a xlink:title=" ">
<path fill="none" stroke="#63b8ff" d="M58.93,-192.37C74.22,-202.78 99.15,-218.72 122.5,-229 126.5,-230.76 130.72,-232.42 134.99,-233.96"/>
<polygon fill="#63b8ff" stroke="#63b8ff" points="133.63,-237.19 144.22,-237.07 135.87,-230.56 133.63,-237.19"/>
</a>
</g>
</g>
<!-- Node5 -->
<g id="Node000005" class="node">
<title>Node5</title>
<g id="a_Node000005"><a xlink:href="group__shtc3__interface__driver.html#ga304c64f25a869a7d099b4ae188d606f9" target="_top" xlink:title="interface iic bus deinit">
<polygon fill="white" stroke="#666666" points="236.38,-220 138.62,-220 138.62,-188 236.38,-188 236.38,-220"/>
<text xml:space="preserve" text-anchor="start" x="146.62" y="-206.5" font-family="Helvetica,sans-Serif" font-size="10.00">shtc3_interface_iic</text>
<text xml:space="preserve" text-anchor="middle" x="187.5" y="-194.5" font-family="Helvetica,sans-Serif" font-size="10.00">_deinit</text>
</a>
</g>
</g>
<!-- Node1&#45;&gt;Node5 -->
<g id="edge4_Node000001_Node000005" class="edge">
<title>Node1&#45;&gt;Node5</title>
<g id="a_edge4_Node000001_Node000005"><a xlink:title=" ">
<path fill="none" stroke="#63b8ff" d="M86.93,-188.6C99.59,-190.56 113.69,-192.74 127.2,-194.83"/>
<polygon fill="#63b8ff" stroke="#63b8ff" points="126.46,-198.26 136.87,-196.32 127.53,-191.34 126.46,-198.26"/>
</a>
</g>
</g>
<!-- Node6 -->
<g id="Node000006" class="node">
<title>Node6</title>
<g id="a_Node000006"><a xlink:href="group__shtc3__interface__driver.html#ga3fd5718a5854b96b36242b37ee603096" target="_top" xlink:title="interface iic bus init">
<polygon fill="white" stroke="#666666" points="245.38,-170 129.62,-170 129.62,-150 245.38,-150 245.38,-170"/>
<text xml:space="preserve" text-anchor="middle" x="187.5" y="-156.5" font-family="Helvetica,sans-Serif" font-size="10.00">shtc3_interface_iic_init</text>
</a>
</g>
</g>
<!-- Node1&#45;&gt;Node6 -->
<g id="edge5_Node000001_Node000006" class="edge">
<title>Node1&#45;&gt;Node6</title>
<g id="a_edge5_Node000001_Node000006"><a xlink:title=" ">
<path fill="none" stroke="#63b8ff" d="M86.93,-175.4C96.83,-173.87 107.61,-172.2 118.3,-170.55"/>
<polygon fill="#63b8ff" stroke="#63b8ff" points="118.53,-174.05 127.88,-169.07 117.46,-167.14 118.53,-174.05"/>
</a>
</g>
</g>
<!-- Node7 -->
<g id="Node000007" class="node">
<title>Node7</title>
<g id="a_Node000007"><a xlink:href="group__shtc3__interface__driver.html#ga9f06041c545ae2e0c3d44b71a918d6ea" target="_top" xlink:title="interface iic bus read with 16 bits register address">
<polygon fill="white" stroke="#666666" points="236.38,-132 138.62,-132 138.62,-100 236.38,-100 236.38,-132"/>
<text xml:space="preserve" text-anchor="start" x="146.62" y="-118.5" font-family="Helvetica,sans-Serif" font-size="10.00">shtc3_interface_iic</text>
<text xml:space="preserve" text-anchor="middle" x="187.5" y="-106.5" font-family="Helvetica,sans-Serif" font-size="10.00">_read_address16</text>
</a>
</g>
</g>
<!-- Node1&#45;&gt;Node7 -->
<g id="edge6_Node000001_Node000007" class="edge">
<title>Node1&#45;&gt;Node7</title>
<g id="a_edge6_Node000001_Node000007"><a xlink:title=" ">
<path fill="none" stroke="#63b8ff" d="M62.62,-171.64C78.3,-162.98 101.57,-150.54 122.5,-141 125.6,-139.59 128.81,-138.18 132.06,-136.79"/>
<polygon fill="#63b8ff" stroke="#63b8ff" points="133.22,-140.1 141.11,-133.03 130.53,-133.63 133.22,-140.1"/>
</a>
</g>
</g>
<!-- Node8 -->
<g id="Node000008" class="node">
<title>Node8</title>
<g id="a_Node000008"><a xlink:href="group__shtc3__interface__driver.html#ga8529d1fa3f51d653bd242887128a37e8" target="_top" xlink:title="interface iic bus read with 16 bits register address">
<polygon fill="white" stroke="#666666" points="241.62,-82 133.38,-82 133.38,-50 241.62,-50 241.62,-82"/>
<text xml:space="preserve" text-anchor="start" x="141.38" y="-68.5" font-family="Helvetica,sans-Serif" font-size="10.00">shtc3_interface_iic</text>
<text xml:space="preserve" text-anchor="middle" x="187.5" y="-56.5" font-family="Helvetica,sans-Serif" font-size="10.00">_scl_read_address16</text>
</a>
</g>
</g>
<!-- Node1&#45;&gt;Node8 -->
<g id="edge7_Node000001_Node000008" class="edge">
<title>Node1&#45;&gt;Node8</title>
<g id="a_edge7_Node000001_Node000008"><a xlink:title=" ">
<path fill="none" stroke="#63b8ff" d="M50.73,-171.54C62.74,-152.93 90.2,-113.89 122.5,-91 124.04,-89.91 125.63,-88.86 127.27,-87.85"/>
<polygon fill="#63b8ff" stroke="#63b8ff" points="128.61,-91.1 135.67,-83.2 125.23,-84.97 128.61,-91.1"/>
</a>
</g>
</g>
<!-- Node9 -->
<g id="Node000009" class="node">
<title>Node9</title>
<g id="a_Node000009"><a xlink:href="group__shtc3__interface__driver.html#ga2caa755c4961fd7f65c62ddc7e687ddb" target="_top" xlink:title="interface iic bus write with 16 bits register address">
<polygon fill="white" stroke="#666666" points="236.38,-32 138.62,-32 138.62,0 236.38,0 236.38,-32"/>
<text xml:space="preserve" text-anchor="start" x="146.62" y="-18.5" font-family="Helvetica,sans-Serif" font-size="10.00">shtc3_interface_iic</text>
<text xml:space="preserve" text-anchor="middle" x="187.5" y="-6.5" font-family="Helvetica,sans-Serif" font-size="10.00">_write_address16</text>
</a>
</g>
</g>
<!-- Node1&#45;&gt;Node9 -->
<g id="edge8_Node000001_Node000009" class="edge">
<title>Node1&#45;&gt;Node9</title>
<g id="a_edge8_Node000001_Node000009"><a xlink:title=" ">
<path fill="none" stroke="#63b8ff" d="M47.3,-171.56C55.34,-145.81 79.5,-78.58 122.5,-41 124.4,-39.34 126.42,-37.79 128.53,-36.33"/>
<polygon fill="#63b8ff" stroke="#63b8ff" points="130.14,-39.44 136.95,-31.32 126.56,-33.43 130.14,-39.44"/>
</a>
</g>
</g>
</g>
</svg>
